<svg xmlns="http://www.w3.org/2000/svg" viewBox="0 0 512 512" role="img" aria-label="George S. Thomas monogram">
  <title>George S. Thomas monogram</title>
  <rect width="512" height="512" rx="112" fill="#0a0a0a"/>
  <g stroke="#1d1d1d" stroke-width="1">
    <line x1="40" y1="0" x2="40" y2="512"/>
    <line x1="80" y1="0" x2="80" y2="512"/>
    <line x1="120" y1="0" x2="120" y2="512"/>
    <line x1="160" y1="0" x2="160" y2="512"/>
    <line x1="200" y1="0" x2="200" y2="512"/>
    <line x1="240" y1="0" x2="240" y2="512"/>
    <line x1="280" y1="0" x2="280" y2="512"/>
    <line x1="320" y1="0" x2="320" y2="512"/>
    <line x1="360" y1="0" x2="360" y2="512"/>
    <line x1="400" y1="0" x2="400" y2="512"/>
    <line x1="440" y1="0" x2="440" y2="512"/>
    <line x1="480" y1="0" x2="480" y2="512"/>
    <line x1="0" y1="40" x2="512" y2="40"/>
    <line x1="0" y1="80" x2="512" y2="80"/>
    <line x1="0" y1="120" x2="512" y2="120"/>
    <line x1="0" y1="160" x2="512" y2="160"/>
    <line x1="0" y1="200" x2="512" y2="200"/>
    <line x1="0" y1="240" x2="512" y2="240"/>
    <line x1="0" y1="280" x2="512" y2="280"/>
    <line x1="0" y1="320" x2="512" y2="320"/>
    <line x1="0" y1="360" x2="512" y2="360"/>
    <line x1="0" y1="400" x2="512" y2="400"/>
    <line x1="0" y1="440" x2="512" y2="440"/>
    <line x1="0" y1="480" x2="512" y2="480"/>
  </g>
  <polygon points="256,88 396,168 396,344 256,424 116,344 116,168" fill="none" stroke="#00f0ff" stroke-width="8"/>
  <text x="256" y="290" font-family="DejaVu Sans, Verdana, sans-serif" font-size="120" font-weight="700" fill="#E8E4DC" text-anchor="middle">GST</text>
  <text x="256" y="356" font-family="DejaVu Sans Mono, monospace" font-size="34" fill="#7de8ff" text-anchor="middle">THOMU</text>
</svg>
